<?xml version="1.0" encoding="utf-8"?>
<!-- Generator: Adobe Illustrator 24.2.3, SVG Export Plug-In . SVG Version: 6.00 Build 0)  -->
<svg version="1.1" id="Layer_1" xmlns="http://www.w3.org/2000/svg" xmlns:xlink="http://www.w3.org/1999/xlink" x="0px" y="0px"
	 viewBox="0 0 137 80" style="enable-background:new 0 0 137 80;" xml:space="preserve">
<style type="text/css">
	.st0{fill:#B1B1B1;}
	.st1{fill:#BC6A06;}
	.st2{fill:none;stroke:#FBFBFB;stroke-width:1.53;stroke-miterlimit:10;}
	.st3{fill:#FBFBFB;}
	.st4{fill:#D3D3D3;}
	.st5{fill:#070924;}
	.st6{fill:#FFFFFF;}
	.st7{fill:#CEB389;}
	.st8{fill:#F28F16;}
	.st9{fill:none;stroke:#070924;stroke-width:1.13;stroke-miterlimit:10;}
	.st10{fill:none;stroke:#070924;stroke-width:3.42;stroke-miterlimit:10;}
	.st11{fill:#B39763;}
	.st12{fill:#9B7D4C;}
	.st13{fill:#D59395;}
	.st14{fill:#BD7980;}
	.st15{fill:none;stroke:#070924;stroke-width:1.02;stroke-linecap:round;stroke-linejoin:round;}
	.st16{fill:#F5DFAB;}
	.st17{fill:none;stroke:#FFFFFF;stroke-width:0.77;stroke-linecap:round;stroke-linejoin:round;}
	.st18{fill:none;stroke:#D1D1D1;stroke-width:1.07;stroke-miterlimit:10;}
	.st19{fill:#DBDADB;}
	.st20{fill:none;stroke:#FFFFFF;stroke-width:0.61;stroke-miterlimit:10;}
	.st21{fill:#E4840E;}
	.st22{fill:none;stroke:#070924;stroke-width:1.07;stroke-miterlimit:10;}
	.st23{fill:none;stroke:#FFFFFF;stroke-width:1.07;stroke-miterlimit:10;}
</style>
<path class="st0" d="M59.4,17.3c-0.3-0.5-0.7-0.9-1.1-1.2c-0.4-0.3-1-0.5-1.5-0.6s-1.1-0.1-1.6,0s-1,0.3-1.5,0.6
	c-0.5,0.3-0.8,0.7-1.1,1.2s-0.5,1-0.6,1.5s-0.1,1.1,0.1,1.6c0.1,0.5,0.4,1,0.7,1.5l3.8,5.4l6.4-4.8L59.4,17.3z"/>
<path class="st0" d="M84.6,27.1L82.9,25c-0.2-0.2-0.5-0.4-0.7-0.4c-0.3-0.1-0.6,0-0.9,0.1l-4.5,2.1l-12.1-1.6l-1.8-2.6l-5.7,4.3
	l2.3,3.1c0.3,0.4,0.8,0.8,1.3,1s1.1,0.4,1.6,0.3l0,0l13.9-0.6c0.9,0.3,1.9,0.3,2.7,0l2.4-0.8l0.6,0.5c0.2,0.2,0.4,0.3,0.6,0.3
	s0.5,0,0.7-0.2L84,30c0.2-0.2,0.4-0.4,0.6-0.7l0.3-0.6c0.1-0.3,0.2-0.6,0.1-0.9S84.8,27.3,84.6,27.1z"/>
<path class="st1" d="M71.2,63.8v0.9l15.2-0.2v-0.9h-0.6c0,0,0-2.3-2.9-2.7s-3.5-0.2-4.2-1.1c-0.3-0.5-0.5-1-0.5-1.6
	c0-0.1-0.1-0.3-0.2-0.3s-0.2-0.1-0.3-0.1h-0.1v-2.3h2.6v-3.1h-1V39.5v-0.1c0-1.2-0.5-2.3-1.3-3.1S76,35,74.8,35h-21
	c0,0-3.1,8.8,5.4,8.8h11.3v8.5h-0.9v3.1H72l0.1,2.3c-0.1,0-0.2,0.1-0.3,0.2c-0.1,0.1-0.1,0.2-0.1,0.3l0.1,5.4"/>
<path class="st2" d="M86.9,26.8l-2.3-8c-0.1-0.3-0.3-0.6-0.6-0.8c-0.3-0.2-0.6-0.3-1-0.3h-1.2"/>
<path class="st3" d="M81.4,20.3c0.5,0,1-1.3,1-2.9s-0.4-2.9-1-2.9s-1,1.3-1,2.9S80.8,20.3,81.4,20.3z"/>
<path class="st3" d="M91.2,28.8c0.3-1.7-0.9-3.3-2.6-3.5c-1.7-0.3-3.3,0.9-3.5,2.6c-0.3,1.7,0.9,3.3,2.6,3.5
	C89.4,31.6,90.9,30.5,91.2,28.8z"/>
<path class="st4" d="M87.9,24.4H85c-0.6,0-1.1,0.5-1.1,1.1v5.6c0,0.6,0.5,1.1,1.1,1.1h2.9c0.6,0,1.1-0.5,1.1-1.1v-5.6
	C89.1,24.9,88.6,24.4,87.9,24.4z"/>
<path class="st5" d="M25.4,59.7H21v3h4.4V59.7z"/>
<path class="st5" d="M99.9,79.9c6.8,0,12.2-5.5,12.2-12.2s-5.5-12.2-12.2-12.2c-6.8,0-12.2,5.5-12.2,12.2S93.1,79.9,99.9,79.9z"/>
<path class="st4" d="M99.9,75.4c4.3,0,7.8-3.5,7.8-7.8s-3.5-7.8-7.8-7.8s-7.8,3.5-7.8,7.8S95.6,75.4,99.9,75.4z"/>
<path class="st6" d="M97.6,67.6c0,0.4,0.1,0.9,0.4,1.3c0.2,0.4,0.6,0.7,1,0.8c0.4,0.2,0.9,0.2,1.3,0.1s0.8-0.3,1.2-0.6
	s0.5-0.7,0.6-1.2c0.1-0.4,0-0.9-0.1-1.3c-0.2-0.4-0.5-0.8-0.8-1c-0.4-0.2-0.8-0.4-1.3-0.4c-0.6,0-1.2,0.2-1.6,0.7
	C97.8,66.5,97.6,67,97.6,67.6z"/>
<path class="st7" d="M99.9,50.7c4.2,0,8.3,1.7,11.3,4.7s4.7,7.1,4.7,11.3h-32c0-4.2,1.7-8.3,4.7-11.3S95.7,50.7,99.9,50.7z"/>
<path class="st8" d="M37.7,26.1h-16v4.5h16.1v-4.5H37.7z"/>
<path class="st6" d="M39.4,30.6H20v14.2h19.3V30.6H39.4z"/>
<path class="st9" d="M28.6,26.1l-0.7,19"/>
<path class="st9" d="M30.1,26.1l0.7,19"/>
<path class="st10" d="M17.2,45.2h24.5"/>
<path class="st10" d="M25.4,45.2l5.5,4"/>
<path class="st11" d="M85.1,25.6l-6.3,3.6l5.5,12.5c0,0,3.8,6.8,1.3,12.7c-2.8,6.7-6,10.2-6,10.2H67.2c-1.3,0-2.5-0.3-3.6-0.9
	s-2.1-1.4-2.8-2.5C59.3,59,58,56,59.1,52.9c1.9-5.5,7.3-8.1,7.3-8.1h-30c0,0-5.3,1.6-13,14.9h3.5l22.5,7h30c0,0,3.5,1.2,8.2-6.5
	l7.7-7.3c0-3.6-1.1-7.1-3.3-10l-7-9.6v-7.7H85.1z"/>
<path class="st5" d="M61.8,45.4c0.6,0,1.2,0.2,1.7,0.7c1.1,1,3.2,2.8,4.8,1.3c2.2-2,0.2-5.3-3.1-5c-3.4,0.3-14.3,0.3-18.4-1.8
	c-4-2.2-5.6-2.3-6.9-0.9c-1.3,1.4,0.8,5.2,4.5,5.7H61.8z"/>
<path class="st5" d="M39.3,79.9c6.8,0,12.2-5.5,12.2-12.2S46,55.4,39.3,55.4S27,60.9,27,67.6S32.5,79.9,39.3,79.9z"/>
<path class="st4" d="M39.3,75.4c4.3,0,7.8-3.5,7.8-7.8s-3.5-7.8-7.8-7.8s-7.8,3.5-7.8,7.8S35,75.4,39.3,75.4z"/>
<path class="st6" d="M37,67.6c0,0.4,0.1,0.9,0.4,1.3c0.2,0.4,0.6,0.7,1,0.8c0.4,0.2,0.9,0.2,1.3,0.1c0.4-0.1,0.8-0.3,1.2-0.6
	c0.3-0.3,0.5-0.7,0.6-1.2c0.1-0.4,0-0.9-0.1-1.3c-0.2-0.4-0.5-0.8-0.8-1c-0.4-0.2-0.8-0.4-1.3-0.4c-0.6,0-1.2,0.2-1.6,0.7
	C37.2,66.5,37,67,37,67.6z"/>
<path class="st7" d="M22.5,65.1c0,0,1.8-11.6,14.6-16.5c12.8-5,17.7,2.1,18.4,3.4c1.1,2.2,2.7,8.8-1.6,13.2L22.5,65.1z"/>
<path class="st12" d="M31.9,61.6h14.2c0.1,0,0.1,0,0.2,0c0.1,0,0.1-0.1,0.2-0.1s0.1-0.1,0.1-0.2c0-0.1,0-0.1,0-0.2
	c0-0.1,0-0.1,0-0.2c0-0.1-0.1-0.1-0.1-0.2c0,0-0.1-0.1-0.2-0.1s-0.1,0-0.2,0H31.9c-0.1,0-0.3,0.1-0.3,0.1c-0.1,0.1-0.1,0.2-0.1,0.3
	s0.1,0.2,0.1,0.3C31.7,61.5,31.8,61.6,31.9,61.6z"/>
<path class="st12" d="M33.5,59.3h11.4c0.1,0,0.1,0,0.2,0c0.1,0,0.1-0.1,0.2-0.1c0,0,0.1-0.1,0.1-0.2c0-0.1,0-0.1,0-0.2
	c0-0.1-0.1-0.3-0.1-0.3c-0.1-0.1-0.2-0.1-0.3-0.1H33.5c-0.1,0-0.2,0.1-0.3,0.1c-0.1,0.1-0.1,0.2-0.1,0.3s0,0.1,0,0.2
	c0,0.1,0.1,0.1,0.1,0.2C33.2,59.2,33.3,59.3,33.5,59.3C33.4,59.3,33.4,59.3,33.5,59.3z"/>
<path class="st12" d="M35.1,57.1h8.1c0.1,0,0.2-0.1,0.3-0.1c0.1-0.1,0.1-0.2,0.1-0.3s0-0.2-0.1-0.3s-0.2-0.1-0.3-0.1h-8.1
	c-0.1,0-0.2,0.1-0.3,0.1c-0.1,0.1-0.1,0.2-0.1,0.3s0,0.1,0,0.2c0,0.1,0.1,0.1,0.1,0.2c0,0,0.1,0.1,0.2,0.1
	C35,57.1,35,57.1,35.1,57.1z"/>
<path class="st13" d="M60.2,8.4L57.3,16l-5.1-1.2l3.6-7L60.2,8.4z"/>
<path class="st14" d="M56.6,7.4c0,0-0.3,3.5,1.6,6.3l0.9-2.5L56.6,7.4z"/>
<path class="st13" d="M62.6,4.4l0.5,5c0,0.3,0,0.6-0.1,0.9c-0.1,0.3-0.2,0.5-0.4,0.8c-0.2,0.2-0.4,0.4-0.7,0.6
	c-0.3,0.1-0.5,0.2-0.8,0.3c-0.9,0.1-1.8-0.1-2.5-0.6s-1.3-1.1-1.7-2l-1.6-3.8c-0.1-0.2-0.1-0.4-0.1-0.6s0.1-0.4,0.2-0.6
	c0.1-0.2,0.3-0.3,0.5-0.5c0.2-0.1,0.4-0.2,0.6-0.2l4-0.8C61.2,2.7,62.5,3.6,62.6,4.4z"/>
<path class="st13" d="M62.8,6.7l1,1.3c0.1,0.2-0.1,0.5-0.4,0.4l-1.5,0.3L62.8,6.7z"/>
<path class="st5" d="M57,4.6c0,0,1.5,0.5,1,1.8c-0.4,1-0.1,2.8,1.2,2.4C60.6,8.4,62,8,63,8.4l0.3,1.4c0.1,0.5,0,1.1-0.3,1.6
	s-0.8,0.8-1.3,1h-0.1c-2,0.5-5.3-0.4-5.2-4L56,5.1L57,4.6z"/>
<path class="st5" d="M55.9,2.7c-0.3,0.1-3.1,0-3.1,3.1c0,2,1.6,4.2,1.6,4.1c0,0,1-0.1,1.3-1.5c0-0.1,0-0.3,0-0.4s-0.1-0.3-0.1-0.4
	l2.1-2.8c0,0-0.6-0.5,0.3-1c1.7-1,3.6-0.6,3.6-0.6C61.1,1.4,56.2,2.7,55.9,2.7z"/>
<path class="st13" d="M54,7c-0.1,0.3-0.1,0.5-0.1,0.8s0.2,0.5,0.4,0.7C54.5,8.7,54.7,8.9,55,9c0.2,0,0.5,0,0.8,0
	c0.3-0.1,0.5-0.2,0.7-0.4s0.3-0.5,0.3-0.7c0-0.3,0-0.6-0.1-0.8c-0.1-0.2-0.3-0.5-0.5-0.6s-0.5-0.2-0.8-0.2s-0.5,0.1-0.8,0.3
	C54.3,6.6,54.1,6.8,54,7z"/>
<path class="st15" d="M55.6,7c0,0-1,0.1-0.5,1.1"/>
<path class="st5" d="M62.2,3.1l5.4-0.8c0.1,0,0.1,0,0.2,0.1c0.1,0,0.1,0.1,0.1,0.2v0.1v0.1c0,0,0,0.1-0.1,0.1c0,0-0.1,0-0.1,0.1
	l-5,1c0,0-0.1,0-0.2,0c0,0-0.1,0-0.1-0.1l-0.1-0.1c0,0,0-0.1-0.1-0.1c0-0.2-0.2-0.3,0-0.4C62.2,3.2,62.2,3.1,62.2,3.1z"/>
<path class="st16" d="M52.5,6l10.3-2.2c0,0-1-4.8-6.3-3.7C51.4,1.3,52.5,6,52.5,6z"/>
<path d="M62.2,6.7c0,0.1,0,0.1-0.1,0.2L62,7c-0.1,0-0.1,0-0.2,0c-0.1,0-0.1,0-0.1-0.1c0,0-0.1-0.1-0.1-0.2s0-0.1,0-0.2
	s0.1-0.1,0.1-0.1c0.1,0,0.1,0,0.2,0c0.1,0,0.2,0,0.2,0.1C62.2,6.6,62.2,6.6,62.2,6.7z"/>
<path class="st5" d="M62.1,5.3c0.1,0.3-0.3,0.4-0.8,0.5s-0.9,0.2-0.9,0s0.3-0.4,0.8-0.5C61.7,5.1,62.1,5.1,62.1,5.3z"/>
<path class="st17" d="M61.2,9c0,0,0.3,0.5,1.4,0.2"/>
<path class="st6" d="M54.9,13.7c0,0-2.6-0.7-4.1,1.9c-1.8,3.1-1.4,8,0.1,12l0.6,7.4h12.2c0,0,0.6-8.2-1.8-13.4
	C58.9,14.8,54.9,13.7,54.9,13.7z"/>
<path class="st13" d="M62.3,24l2.3,3.3c0.5,0.7,0.7,1.6,0.6,2.4c-0.1,0.9-0.6,1.6-1.2,2.2c-0.4,0.3-0.8,0.5-1.2,0.7
	c-0.5,0.1-0.9,0.2-1.4,0.1c-0.5-0.1-0.9-0.2-1.3-0.4c-0.4-0.2-0.8-0.6-1-0.9l-2.3-3.1L62.3,24z"/>
<path class="st6" d="M62.2,24l-3.5-5.2c-0.3-0.5-0.7-0.9-1.2-1.2c-0.5-0.3-1.1-0.5-1.6-0.6c-0.6-0.1-1.2,0-1.7,0.2
	c-0.6,0.2-1.1,0.5-1.5,0.9c-0.7,0.7-1.2,1.6-1.3,2.6s0.1,2,0.7,2.8l3.8,5.4L62.2,24z"/>
<path class="st18" d="M62.3,24l-3.1-4.6"/>
<path class="st18" d="M56.6,28.3l-0.7,0.5l-4.3-6.5"/>
<path class="st13" d="M62.2,26.4l14,1.9l-0.6,3.9l-13.9,0.6c-2.3-0.3-4-2.2-3.2-4.4C59.2,26.7,60.4,26.1,62.2,26.4z"/>
<path class="st13" d="M75.1,28.7l5.6-2.6C81,26,81.3,26,81.6,26c0.3,0.1,0.5,0.2,0.7,0.4l1.6,2.1c0.2,0.2,0.3,0.5,0.4,0.8
	c0,0.3,0,0.6-0.1,0.9L84,30.8c-0.1,0.3-0.3,0.5-0.6,0.7L82.7,32c-0.2,0.1-0.4,0.2-0.7,0.2c-0.2,0-0.5-0.1-0.6-0.3l-0.6-0.5l-2.4,0.8
	c0,0-1.8,0.9-3.9-0.6L75.1,28.7z"/>
<path class="st5" d="M79.3,29.6l-1.2,0.7c-0.2,0.1-0.3,0.3-0.4,0.5s-0.1,0.4-0.1,0.6s0,0.4,0.1,0.6c0.1,0.2,0.2,0.4,0.4,0.5
	c0.2,0.1,0.3,0.3,0.5,0.3c0.2,0.1,0.4,0.1,0.6,0.1s0.4-0.1,0.6-0.1c0.2-0.1,0.4-0.2,0.5-0.4l1.1-0.8c0.1-0.1,0.2-0.3,0.3-0.5
	c0.1-0.2,0.1-0.4,0.1-0.6s-0.1-0.4-0.1-0.6c-0.1-0.2-0.2-0.3-0.4-0.5c-0.3-0.2-0.6-0.4-1-0.4C79.9,29.2,79.6,29.3,79.3,29.6z"/>
<path class="st6" d="M69.7,53l5.8,0.5v5.4L69.9,59L69.7,53z"/>
<path class="st5" d="M69.4,58.4l0.1,5.4l14.1-0.2c0,0,0-2.3-2.9-2.7s-3.5-0.2-4.2-1.1c-0.3-0.5-0.5-1-0.5-1.6c0-0.1-0.1-0.3-0.2-0.3
	c-0.1-0.1-0.2-0.1-0.3-0.1l-5.6,0.1c-0.1,0-0.1,0-0.2,0S69.6,58,69.5,58c0,0-0.1,0.1-0.1,0.2C69.4,58.2,69.4,58.3,69.4,58.4z"/>
<path class="st5" d="M69,64.7l15.2-0.2v-0.9L69,63.8V64.7z"/>
<path class="st19" d="M75.1,59.5L75.1,59.5l0.1,0.2h0.1c0,0,0.1,0,0.1-0.1c0,0,0-0.1,0.1-0.1v-0.1c0,0,0-0.1-0.1-0.1h-0.1
	C75.2,59.3,75.2,59.3,75.1,59.5L75.1,59.5z"/>
<path class="st19" d="M75.8,60.5L75.8,60.5c0,0.1,0,0.1,0.1,0.2c0,0,0,0,0.1,0.1h0.1h0.1c0,0,0.1,0,0.1-0.1c0,0,0,0,0-0.1v-0.1
	c0-0.1,0-0.1-0.1-0.1l-0.1-0.1c0,0-0.1,0-0.1,0.1C75.8,60.4,75.8,60.4,75.8,60.5z"/>
<path class="st19" d="M77,61.1L77,61.1c0,0.1,0,0.1,0.1,0.2c0,0,0,0,0.1,0.1h0.1h0.1c0,0,0.1,0,0.1-0.1c0,0,0,0,0-0.1v-0.1V61
	c0,0,0,0,0-0.1c0,0,0,0-0.1,0h-0.1c-0.1,0-0.1,0-0.1,0.1C77.1,60.9,77,61,77,61.1z"/>
<path class="st19" d="M78.5,61.3L78.5,61.3l0.1,0.2h0.1c0,0,0.1,0,0.1-0.1c0,0,0-0.1,0.1-0.1v-0.1c0,0,0-0.1-0.1-0.1h-0.1h-0.1
	c0,0,0,0-0.1,0C78.5,61.1,78.5,61.1,78.5,61.3C78.5,61.2,78.5,61.2,78.5,61.3z"/>
<path class="st20" d="M69.5,63.8l14.1-0.2"/>
<path class="st8" d="M76.9,39.4h-8.7v16.1h8.7V39.4z"/>
<path class="st21" d="M78,52.4H67.4v3.1H78V52.4z"/>
<path class="st8" d="M51.6,35.1c0,0-3.1,8.8,5.4,8.8h15.6c1.2,0,2.3-0.5,3.1-1.3c0.8-0.8,1.3-2,1.3-3.1c0-1.2-0.5-2.3-1.3-3.1
	s-2-1.3-3.1-1.3C72.6,35.1,51.6,35.1,51.6,35.1z"/>
<path class="st22" d="M68.3,44.1h2.8"/>
<path class="st23" d="M0,79.9h136.6"/>
<path class="st8" d="M83.3,17.6v3.9c0,0,0.8-0.1,0.8-2.2C84.1,17.3,83.3,17.6,83.3,17.6z"/>
<path class="st8" d="M86.2,25.2l-0.7-4.8c0-0.1-0.1-0.3-0.2-0.4s-0.2-0.1-0.4-0.2l-1.3-0.1v-0.4l1.3,0.1c0.2,0,0.4,0.1,0.6,0.3
	s0.3,0.4,0.3,0.6l0.7,4.8L86.2,25.2z"/>
</svg>
