<svg width="46" height="32" viewBox="0 0 46 32" fill="none" xmlns="http://www.w3.org/2000/svg">
<path d="M42.7489 14.6475H3.25023C1.88449 14.6475 0.777344 15.7626 0.777344 17.1383V29.5091C0.777344 30.8847 1.88449 31.9999 3.25023 31.9999H42.7489C44.1146 31.9999 45.2218 30.8847 45.2218 29.5091V17.1383C45.2218 15.7626 44.1146 14.6475 42.7489 14.6475Z" fill="#D60B52"/>
<path d="M41.5427 15.7427H4.47868C3.41879 15.7427 2.55957 16.6081 2.55957 17.6757V28.9729C2.55957 30.0405 3.41879 30.9059 4.47868 30.9059H41.5427C42.6026 30.9059 43.4618 30.0405 43.4618 28.9729V17.6757C43.4618 16.6081 42.6026 15.7427 41.5427 15.7427Z" fill="#FFE1EC"/>
<path d="M5.42976 15.5893C5.31653 15.5907 5.20652 15.5513 5.11954 15.4783C5.08062 15.4474 5.04933 15.4078 5.02809 15.3627C5.00686 15.3176 4.99626 15.2681 4.99712 15.2182C4.99798 15.1683 5.01028 15.1193 5.03305 15.0749C5.05583 15.0306 5.08847 14.9921 5.12842 14.9626L22.5355 0.691035C22.6219 0.624456 22.7277 0.588379 22.8364 0.588379C22.9452 0.588379 23.0509 0.624456 23.1373 0.691035L40.5169 14.8372C40.557 14.8667 40.5897 14.9052 40.6127 14.9495C40.6356 14.9938 40.6481 15.0429 40.6491 15.0929C40.6501 15.1429 40.6397 15.1924 40.6186 15.2377C40.5975 15.283 40.5664 15.3227 40.5276 15.3539C40.4416 15.4246 40.3343 15.4639 40.2233 15.4656C40.1123 15.4672 40.004 15.431 39.916 15.3628L22.8387 1.46102L5.73198 15.489C5.64549 15.5561 5.53889 15.5915 5.42976 15.5893Z" fill="#D60B52"/>
<path d="M22.7067 2.34577C23.474 2.34577 24.0961 1.82065 24.0961 1.17288C24.0961 0.525118 23.474 0 22.7067 0C21.9394 0 21.3174 0.525118 21.3174 1.17288C21.3174 1.82065 21.9394 2.34577 22.7067 2.34577Z" fill="#D60B52"/>
<path d="M9.67999 27.6488C9.38544 27.6499 9.09356 27.5925 8.82113 27.4797C8.5487 27.3669 8.30109 27.201 8.09252 26.9915C7.88395 26.782 7.71855 26.533 7.6058 26.2589C7.49306 25.9848 7.4352 25.691 7.43555 25.3943V20.239C7.43497 19.9419 7.49261 19.6476 7.60519 19.3731C7.71776 19.0985 7.88305 18.8489 8.09157 18.6388C8.30009 18.4287 8.54774 18.2621 8.82032 18.1486C9.0929 18.0351 9.38504 17.9769 9.67999 17.9774C9.9757 17.9719 10.2693 18.028 10.5425 18.1422C10.8157 18.2564 11.0625 18.4261 11.2675 18.6409C11.4778 18.849 11.6439 19.0979 11.7558 19.3727C11.8676 19.6474 11.9229 19.9421 11.9182 20.239V21.3134H10.4515V20.2086C10.4513 19.9907 10.3652 19.7819 10.2122 19.628C10.0592 19.474 9.85181 19.3876 9.63554 19.3876C9.52878 19.3857 9.42279 19.4061 9.32426 19.4476C9.22574 19.489 9.13681 19.5506 9.0631 19.6284C8.98698 19.7041 8.92687 19.7945 8.88638 19.8942C8.8459 19.9939 8.82588 20.1009 8.82755 20.2086V25.38C8.82648 25.4872 8.84665 25.5935 8.88687 25.6927C8.9271 25.7919 8.98658 25.8821 9.06182 25.9579C9.13706 26.0337 9.22656 26.0936 9.32508 26.1341C9.42359 26.1746 9.52914 26.1949 9.63554 26.1938C9.74263 26.1956 9.84897 26.1755 9.94813 26.1348C10.0473 26.094 10.1372 26.0334 10.2124 25.9566C10.2895 25.8822 10.3505 25.7926 10.3917 25.6934C10.4328 25.5942 10.4532 25.4875 10.4515 25.38V24.0755H11.9182V25.3943C11.9184 25.6904 11.8607 25.9836 11.7484 26.2571C11.636 26.5307 11.4713 26.7793 11.2635 26.9887C11.0557 27.198 10.809 27.3641 10.5374 27.4774C10.2659 27.5906 9.9748 27.6489 9.68088 27.6488H9.67999Z" fill="#D60B52"/>
<path d="M16.9295 27.5276H13.0762V18.0854H14.4904V26.113H16.9295V27.5276Z" fill="#D60B52"/>
<path d="M20.1401 17.9629C20.4351 17.9623 20.7272 18.0204 20.9998 18.1338C21.2725 18.2472 21.5202 18.4136 21.7288 18.6237C21.9374 18.8337 22.1028 19.0832 22.2155 19.3577C22.3281 19.6323 22.3859 19.9265 22.3854 20.2236V25.3798C22.3914 25.6801 22.3378 25.9785 22.2278 26.2576C22.1178 26.5368 21.9537 26.791 21.745 27.0055C21.5363 27.2199 21.2872 27.3903 21.0123 27.5066C20.7374 27.6229 20.4423 27.6828 20.1441 27.6828C19.846 27.6828 19.5508 27.6229 19.2759 27.5066C19.001 27.3903 18.752 27.2199 18.5432 27.0055C18.3345 26.791 18.1704 26.5368 18.0604 26.2576C17.9504 25.9785 17.8969 25.6801 17.9028 25.3798V20.2236C17.9023 19.9272 17.9598 19.6336 18.072 19.3596C18.1842 19.0855 18.3489 18.8365 18.5566 18.6265C18.7644 18.4166 19.0111 18.2499 19.2828 18.1361C19.5545 18.0222 19.8458 17.9634 20.1401 17.9629ZM20.9108 20.1932C20.9118 20.086 20.8917 19.9797 20.8514 19.8804C20.8112 19.7812 20.7517 19.6911 20.6765 19.6153C20.6013 19.5395 20.5118 19.4796 20.4132 19.4391C20.3147 19.3985 20.2092 19.3782 20.1028 19.3793C19.9958 19.3777 19.8897 19.3979 19.7907 19.4386C19.6917 19.4794 19.6019 19.5399 19.5268 19.6166C19.4494 19.6908 19.3881 19.7803 19.3468 19.8796C19.3055 19.9788 19.2851 20.0856 19.2868 20.1932V25.3646C19.2851 25.4722 19.3055 25.579 19.3468 25.6782C19.3881 25.7775 19.4494 25.867 19.5268 25.9412C19.6018 26.018 19.6916 26.0786 19.7906 26.1194C19.8896 26.1602 19.9958 26.1803 20.1028 26.1785C20.2092 26.1795 20.3147 26.1592 20.4132 26.1187C20.5118 26.0782 20.6013 26.0183 20.6765 25.9425C20.7517 25.8667 20.8112 25.7766 20.8514 25.6773C20.8917 25.5781 20.9118 25.4718 20.9108 25.3646V20.1932Z" fill="#D60B52"/>
<path d="M28.2222 25.1759C28.2323 25.8325 28.0628 26.3953 27.7138 26.8645C27.4716 27.1897 27.1299 27.4257 26.7413 27.536C26.4857 27.6101 26.2206 27.6454 25.9547 27.6407C25.4006 27.6407 24.9417 27.5025 24.5778 27.2262C24.2624 26.9862 24.0138 26.6682 23.856 26.3031C23.6711 25.8804 23.5656 25.4269 23.5449 24.9655L24.8916 24.867C24.9508 25.4173 25.0957 25.8163 25.3262 26.0641C25.3964 26.1512 25.4856 26.2208 25.587 26.2674C25.6883 26.314 25.7989 26.3363 25.9102 26.3327C26.2196 26.3225 26.4664 26.1691 26.6507 25.8725C26.7455 25.7274 26.7929 25.5185 26.7929 25.2457C26.7929 24.8536 26.6151 24.4638 26.2596 24.0764L25.0018 22.8767C24.5331 22.4195 24.2015 22.0097 24.0071 21.6474C23.7967 21.2371 23.6887 20.7814 23.6925 20.3196C23.6925 19.4595 23.9793 18.808 24.5529 18.3651C24.9085 18.0983 25.3476 17.9652 25.8702 17.9658C26.3248 17.9529 26.7736 18.0702 27.1645 18.3042C27.4499 18.4873 27.6833 18.7418 27.8418 19.0429C28.0198 19.3816 28.1257 19.7539 28.1529 20.1361L26.7973 20.385C26.7582 19.9982 26.6486 19.6968 26.4685 19.4807C26.3988 19.4013 26.3121 19.339 26.2149 19.2985C26.1177 19.258 26.0126 19.2404 25.9076 19.247C25.7866 19.2433 25.6671 19.2738 25.5624 19.3351C25.4578 19.3963 25.3723 19.4858 25.3156 19.5935C25.1997 19.8056 25.1428 20.0454 25.1511 20.2874C25.1511 20.7189 25.3357 21.1586 25.7049 21.6062C25.8954 21.8263 26.1057 22.028 26.3333 22.2088C26.6634 22.4857 26.8806 22.6794 26.9849 22.7898C27.3025 23.0962 27.5767 23.4451 27.8 23.8266C27.8816 23.9711 27.954 24.1206 28.0169 24.2743C28.1389 24.5598 28.2085 24.8653 28.2222 25.1759Z" fill="#D60B52"/>
<path d="M29.3994 27.5282V18.0762H33.4261V19.5087H30.8101V22.0872H32.7185V23.5198H30.8101V26.0983H33.4225V27.5309L29.3994 27.5282Z" fill="#D60B52"/>
<path d="M38.8409 25.2664C38.8456 25.5633 38.7903 25.858 38.6785 26.1328C38.5666 26.4075 38.4005 26.6565 38.1902 26.8646C37.9876 27.078 37.7435 27.247 37.4731 27.3612C37.2027 27.4753 36.9118 27.5321 36.6187 27.528H34.3965V18.076H36.6187C36.9125 18.0709 37.2042 18.1273 37.4753 18.2415C37.7464 18.3557 37.991 18.5252 38.1938 18.7394C38.4025 18.9468 38.5675 19.1946 38.6787 19.4679C38.7899 19.7411 38.8451 20.0342 38.8409 20.3295V25.2664ZM35.8098 26.1188H36.6631C36.7698 26.1207 36.8757 26.0999 36.9737 26.0576C37.0718 26.0153 37.1598 25.9525 37.232 25.8734C37.3067 25.7976 37.3657 25.7076 37.4055 25.6086C37.4453 25.5096 37.4652 25.4036 37.464 25.2968V20.3519C37.4652 20.2443 37.445 20.1375 37.4045 20.0378C37.3641 19.9382 37.3042 19.8477 37.2285 19.7718C37.1558 19.6946 37.068 19.6333 36.9708 19.5919C36.8735 19.5504 36.7688 19.5297 36.6631 19.5309H35.8098V26.1188Z" fill="#D60B52"/>
</svg>
